<svg xmlns="http://www.w3.org/2000/svg" version="1.2" viewBox="0 0 1600 675"><path fill="#0068b5" d="M0 9.41h125.94v125.9H0V9.41Z"/><path fill-rule="evenodd" d="M3.59 665.35V211.93H122.8v453.42H3.59Zm895.91 4.48c-36.31 0-66.78-3.14-90.98-9.86-23.76-6.72-43.48-17.47-58.27-32.7-14.79-15.24-25.54-35.4-31.82-60.04-6.27-25.09-9.41-56.46-9.41-93.64V34.95h119.66v176.98h86.5v102.15h-86.5v158.61c0 17.92.9 32.71 2.69 43.91 2.24 11.65 6.28 20.61 12.55 26.88 6.28 6.27 15.69 10.75 28.24 12.55 10.75 1.79 25.54 2.68 43.02 2.68v111.12H899.5Zm580.84-4.48V0H1600v665.35h-119.66ZM643.59 407.72V664.9H523.03V424.3c0-37.19-8.97-66.31-26-86.92-17.48-20.61-43.92-31.36-78.43-31.36-29.13 0-54.68 10.75-75.74 32.26-19.72 20.16-30.03 51.52-31.38 94.08v232.99H192.72V211.93h117.87v64.96l6.72-8.51c15.69-20.61 35.86-36.74 59.16-48.39 23.75-11.65 49.75-17.47 78.43-17.47 59.16 0 105.77 17.92 138.94 53.76 33.16 35.85 50.19 86.92 49.75 151.44Zm774.9 72.59h-356.31l1.35 4.03c7.62 26.43 21.96 47.94 43.02 63.17 21.07 15.68 48.86 23.3 82.47 23.3 53.78 0 96.81-29.12 114.73-50.63l86.05 65.42c-37.64 43.01-100.39 89.16-201.68 89.16-34.95 0-67.67-6.27-97.25-18.82-29.58-12.1-55.13-29.12-75.74-50.18-20.62-21.06-37.2-46.15-48.86-74.82-11.65-28.68-17.47-59.6-17.47-92.3 0-32.71 5.82-63.63 18.37-92.3 12.1-28.68 29.13-53.77 50.2-74.82 21.06-21.06 46.16-37.64 74.84-50.19 28.69-12.09 59.61-18.36 92.33-18.36 34.51 0 66.33 5.82 95.01 17.92 28.69 12.09 53.34 28.67 73.95 50.18 20.17 21.5 36.3 46.59 47.96 74.82 11.2 28.68 17.03 59.14 17.03 91.85v42.57Zm-114.74-84.68c0-33.16-38.54-90.96-120.56-90.96-82.01.45-120.11 58.25-120.11 91.4l240.67-.44Z"/></svg>